HIERARCHY
ROOT SpineBase
{
  OFFSET 0.000000 0.000000 0.000000
  CHANNELS 6 Xposition Yposition Zposition Zrotation Xrotation Yrotation
  JOINT SpineMid
  {
    OFFSET 0.000000 30.245475 0.000000
    CHANNELS 3 Zrotation Xrotation Yrotation
    JOINT SpineShoulder
    {
      OFFSET -0.132141 22.520647 -0.738225
      CHANNELS 3 Zrotation Xrotation Yrotation
      JOINT Neck
      {
        OFFSET -0.114827 7.492258 -0.569252
        CHANNELS 3 Zrotation Xrotation Yrotation
        JOINT Head
        {
          OFFSET 5.003061 13.060568 -1.065191
          CHANNELS 3 Zrotation Xrotation Yrotation
          End Site
          {
            OFFSET 0 0 0
          }
        }
      }
      JOINT ShoulderLeft
      {
        OFFSET -14.860960 -2.431833 -5.103967
        CHANNELS 3 Zrotation Xrotation Yrotation
        JOINT ElbowLeft
        {
          OFFSET -7.206751 -23.808427 -2.635793
          CHANNELS 3 Zrotation Xrotation Yrotation
          JOINT WristLeft
          {
            OFFSET -1.870299 -24.209709 -6.032148
            CHANNELS 3 Zrotation Xrotation Yrotation
            JOINT HandLeft
            {
              OFFSET 1.055977 -7.035632 -1.123581
              CHANNELS 3 Zrotation Xrotation Yrotation
              JOINT HandTipLeft
              {
                OFFSET -0.895277 -6.331973 -3.060082
                CHANNELS 3 Zrotation Xrotation Yrotation
                End Site
                {
                  OFFSET 0 0 0
                }
              }
              JOINT ThumbLeft
              {
                OFFSET 3.359447 0.969674 -0.969058
                CHANNELS 3 Zrotation Xrotation Yrotation
                End Site
                {
                  OFFSET 0 0 0
                }
              }
            }
          }
        }
      }
      JOINT ShoulderRight
      {
        OFFSET 15.860269 -7.528269 4.190631
        CHANNELS 3 Zrotation Xrotation Yrotation
        JOINT ElbowRight
        {
          OFFSET -1.385330 -24.717605 -3.140684
          CHANNELS 3 Zrotation Xrotation Yrotation
          JOINT WristRight
          {
            OFFSET 2.705681 -24.555360 -1.617625
            CHANNELS 3 Zrotation Xrotation Yrotation
            JOINT HandRight
            {
              OFFSET -1.672477 -5.346444 -0.331078
              CHANNELS 3 Zrotation Xrotation Yrotation
              JOINT HandTipRight
              {
                OFFSET 0.785376 -6.502024 -1.774664
                CHANNELS 3 Zrotation Xrotation Yrotation
                End Site
                {
                  OFFSET 0 0 0
                }
              }
              JOINT ThumbRight
              {
                OFFSET -2.192024 -4.216282 -2.964247
                CHANNELS 3 Zrotation Xrotation Yrotation
                End Site
                {
                  OFFSET 0 0 0
                }
              }
            }
          }
        }
      }
    }
  }
  JOINT HipLeft
  {
    OFFSET -7.276861 2.069543 -5.286121
    CHANNELS 3 Zrotation Xrotation Yrotation
    JOINT KneeLeft
    {
      OFFSET -10.587192 -36.275872 -3.219574
      CHANNELS 3 Zrotation Xrotation Yrotation
      JOINT AnkleLeft
      {
        OFFSET -3.945296 -38.513567 8.476308
        CHANNELS 3 Zrotation Xrotation Yrotation
        JOINT FootLeft
        {
          OFFSET 2.236759 -3.609164 -13.235032
          CHANNELS 3 Zrotation Xrotation Yrotation
          End Site
          {
            OFFSET 0 0 0
          }
        }
      }
    }
  }
  JOINT HipRight
  {
    OFFSET 5.946683 -0.084197 -1.409750
    CHANNELS 3 Zrotation Xrotation Yrotation
    JOINT KneeRight
    {
      OFFSET -1.947185 -39.613292 1.479361
      CHANNELS 3 Zrotation Xrotation Yrotation
      JOINT AnkleRight
      {
        OFFSET -4.801537 -32.779248 8.089344
        CHANNELS 3 Zrotation Xrotation Yrotation
        JOINT FootRight
        {
          OFFSET 2.085615 -3.645870 -13.226249
          CHANNELS 3 Zrotation Xrotation Yrotation
          End Site
          {
            OFFSET 0 0 0
          }
        }
      }
    }
  }
}
MOTION
Frames: 13
Frame Time: 0.033333
80.611040 81.407539 392.830934 -0.000000 0.000000 -16.338054 -0.000000 0.000000 16.338054 -0.000000 0.000000 0.000000 -0.000000 0.000000 0.000000 0.000000 0.000000 0.000000 -0.000000 0.000000 0.000000 -0.000000 0.000000 0.000000 -0.000000 0.000000 0.000000 -0.000000 0.000000 0.000000 0.000000 0.000000 0.000000 0.000000 0.000000 0.000000 -0.000000 0.000000 0.000000 -0.000000 0.000000 0.000000 -0.000000 0.000000 0.000000 -0.000000 0.000000 0.000000 0.000000 0.000000 0.000000 0.000000 0.000000 0.000000 -0.000000 0.000000 16.338054 -0.000000 0.000000 0.000000 -0.000000 0.000000 0.000000 0.000000 0.000000 0.000000 -0.000000 0.000000 16.338054 -0.000000 0.000000 0.000000 -0.000000 0.000000 0.000000 0.000000 0.000000 0.000000
80.601417 81.404538 392.782075 -0.012589 0.017422 -16.547184 0.017029 -0.013115 16.547188 -0.000000 0.000000 0.000000 -0.000000 0.000000 0.000000 0.000000 0.000000 0.000000 -0.000000 0.000000 0.000000 -0.000000 0.000000 0.000000 0.073580 1.066609 0.147423 0.781279 -0.612442 -0.614209 0.000000 0.000000 0.000000 0.000000 0.000000 0.000000 -0.000000 0.000000 0.000000 0.495111 -0.959977 -0.134258 -1.596918 5.379254 -1.106855 -0.420650 -2.953191 1.859534 0.000000 0.000000 0.000000 0.000000 0.000000 0.000000 0.017029 -0.013115 16.547188 -0.000000 0.000000 0.000000 -0.000000 0.000000 0.000000 0.000000 0.000000 0.000000 0.017029 -0.013115 16.547188 -0.000000 0.000000 0.000000 -0.000000 0.000000 0.000000 0.000000 0.000000 0.000000
80.590300 81.402344 392.735176 -0.030535 0.034042 -16.718491 0.039037 -0.023819 16.718508 -0.000000 0.000000 0.000000 -0.000000 0.000000 0.000000 0.000000 0.000000 0.000000 -0.000000 0.000000 0.000000 -0.000000 0.000000 0.000000 0.177972 1.886132 0.251044 1.530314 -1.062489 -1.156671 0.000000 0.000000 0.000000 0.000000 0.000000 0.000000 -0.000000 0.000000 0.000000 0.894473 -1.753466 -0.238497 -2.786537 9.830912 -1.943247 -0.697422 -5.296798 3.304456 0.000000 0.000000 0.000000 0.000000 0.000000 0.000000 0.039037 -0.023819 16.718508 -0.000000 0.000000 0.000000 -0.000000 0.000000 0.000000 0.000000 0.000000 0.000000 0.039037 -0.023819 16.718508 -0.000000 0.000000 0.000000 -0.000000 0.000000 0.000000 0.000000 0.000000 0.000000
80.577690 81.400957 392.690237 -0.053843 0.049860 -16.852392 0.065985 -0.032109 16.852434 -0.000000 0.000000 0.000000 -0.000000 0.000000 0.000000 0.000000 0.000000 0.000000 -0.000000 0.000000 0.000000 -0.000000 0.000000 0.000000 0.312864 2.498870 0.317091 2.243104 -1.391836 -1.638596 0.000000 0.000000 0.000000 0.000000 0.000000 0.000000 -0.685463 0.514225 0.061298 1.881510 -2.894511 -0.360676 -3.581017 13.257317 -2.552725 -0.806116 -6.938742 4.361474 0.000000 0.000000 0.000000 0.000000 0.000000 0.000000 0.065985 -0.032109 16.852434 -0.000000 0.000000 0.000000 -0.000000 0.000000 0.000000 0.000000 0.000000 0.000000 0.065985 -0.032109 16.852434 -0.000000 0.000000 0.000000 -0.000000 0.000000 0.000000 0.000000 0.000000 0.000000
80.563585 81.400377 392.647259 -0.082518 0.064874 -16.949175 0.097846 -0.038000 16.949254 -0.000000 0.000000 0.000000 0.058482 -0.882967 0.343312 0.000000 0.000000 0.000000 -0.000000 0.000000 0.000000 -0.000000 0.000000 0.000000 0.478576 2.933307 0.350022 2.914257 -1.629916 -2.067546 0.000000 0.000000 0.000000 0.000000 0.000000 0.000000 -0.816790 0.591250 0.074783 2.220627 -3.427763 -0.422207 -3.995782 15.629395 -2.974160 -0.702552 -7.855994 5.063643 0.000000 0.000000 0.000000 0.000000 0.000000 0.000000 0.097846 -0.038000 16.949254 -0.000000 0.000000 0.000000 -0.000000 0.000000 0.000000 0.000000 0.000000 0.000000 0.097846 -0.038000 16.949254 -0.000000 0.000000 0.000000 -0.000000 0.000000 0.000000 0.000000 0.000000 0.000000
80.547987 81.400604 392.606241 -0.116565 0.079083 -17.009004 0.134600 -0.041526 17.009134 -0.000000 0.000000 0.000000 0.140218 -1.007609 0.398559 0.000000 0.000000 0.000000 -0.000000 0.000000 0.000000 -0.000000 0.000000 0.000000 0.676079 3.209176 0.352989 3.537482 -1.796786 -2.448578 0.000000 0.000000 0.000000 0.000000 0.000000 0.000000 -0.899577 0.621214 0.084270 2.416421 -3.743551 -0.460791 -4.049288 16.963822 -3.236559 -0.331435 -8.075837 5.435333 0.000000 0.000000 0.000000 0.000000 0.000000 0.000000 0.134600 -0.041526 17.009134 -0.000000 0.000000 0.000000 -0.000000 0.000000 0.000000 0.000000 0.000000 0.000000 0.134600 -0.041526 17.009134 -0.000000 0.000000 0.000000 -0.000000 0.000000 0.000000 0.000000 0.000000 0.000000
80.525280 81.405097 392.558702 -0.169528 0.103270 -17.072252 0.192375 -0.048950 17.072487 -0.000000 0.000000 0.000000 0.321213 -1.108845 0.454207 0.000000 0.000000 0.000000 -0.000000 0.000000 0.000000 -0.000000 0.000000 0.000000 0.957893 3.405757 0.327895 4.906788 -1.050315 -3.323269 0.000000 0.000000 0.000000 0.000000 0.000000 0.000000 -0.917677 0.567827 0.089231 2.294180 -3.771280 -0.471861 -2.964723 16.393681 -3.271032 0.972952 -7.543590 4.973965 0.000000 0.000000 0.000000 0.000000 0.000000 0.000000 0.192375 -0.048950 17.072487 -0.000000 0.000000 0.000000 -0.000000 0.000000 0.000000 0.000000 0.000000 0.000000 0.192375 -0.048950 17.072487 -0.000000 0.000000 0.000000 -0.000000 0.000000 0.000000 0.000000 0.000000 0.000000
80.501820 81.404174 392.517467 -0.225249 0.116859 -17.067716 0.249628 -0.045601 17.068045 -0.000000 0.000000 0.000000 0.507965 -1.127623 0.478822 0.000000 0.000000 0.000000 -0.000000 0.000000 0.000000 -0.000000 0.000000 0.000000 0.992372 2.913620 0.252323 4.711316 -0.925430 -3.150985 0.000000 0.000000 0.000000 0.000000 0.000000 0.000000 -0.838005 0.451432 0.084404 1.993358 -3.482733 -0.448511 -2.148521 15.620060 -3.271583 -0.636258 -8.242827 4.712955 0.000000 0.000000 0.000000 0.000000 0.000000 0.000000 0.249628 -0.045601 17.068045 -0.000000 0.000000 0.000000 -0.000000 0.000000 0.000000 0.000000 0.000000 0.000000 0.249628 -0.045601 17.068045 -0.000000 0.000000 0.000000 -0.000000 0.000000 0.000000 0.000000 0.000000 0.000000
80.482909 81.402699 392.483171 -0.272333 0.130100 -16.998553 0.298470 -0.044799 16.998979 -0.000000 0.000000 0.000000 0.654878 -1.129062 0.493063 0.000000 0.000000 0.000000 -0.000000 0.000000 0.000000 -0.000000 0.000000 0.000000 1.367017 3.061806 0.203564 5.531989 -2.286116 -3.422336 0.000000 0.000000 0.000000 0.000000 0.000000 0.000000 -0.000000 0.000000 0.000000 1.001105 -2.781180 -0.348379 -1.539412 14.756999 -3.230063 -0.568197 -3.725425 4.908162 0.000000 0.000000 0.000000 0.000000 0.000000 0.000000 0.298470 -0.044799 16.998979 -0.000000 0.000000 0.000000 -0.000000 0.000000 0.000000 0.000000 0.000000 0.000000 0.298470 -0.044799 16.998979 -0.000000 0.000000 0.000000 -0.000000 0.000000 0.000000 0.000000 0.000000 0.000000
80.472306 81.403944 392.461748 -0.307859 0.134224 -16.853797 0.333551 -0.039200 16.854272 -0.000000 0.000000 0.000000 0.774564 -1.132005 0.505370 0.000000 0.000000 0.000000 -0.000000 0.000000 0.000000 -0.000000 0.000000 0.000000 1.768597 3.176653 0.144422 5.593537 -2.834129 -3.494104 0.000000 0.000000 0.000000 0.000000 0.000000 0.000000 -0.000000 0.000000 0.000000 0.997876 -2.563656 -0.326105 -1.317978 14.321090 -3.236941 3.057616 -2.339320 4.380242 0.000000 0.000000 0.000000 0.000000 0.000000 0.000000 0.333551 -0.039200 16.854272 -0.000000 0.000000 0.000000 -0.000000 0.000000 0.000000 0.000000 0.000000 0.000000 0.333551 -0.039200 16.854272 -0.000000 0.000000 0.000000 -0.000000 0.000000 0.000000 0.000000 0.000000 0.000000
80.469790 81.403166 392.439677 -0.327441 0.146783 -16.773101 0.355869 -0.046043 16.773663 -0.000000 0.000000 0.000000 0.816206 -1.111349 0.501187 0.000000 0.000000 0.000000 -0.000000 0.000000 0.000000 -0.621886 0.666935 0.106848 2.604653 2.706559 0.055090 5.229840 -3.241082 -3.367260 0.000000 0.000000 0.000000 0.000000 0.000000 0.000000 -0.000000 0.000000 0.000000 1.058069 -2.511151 -0.323391 -1.507507 14.381810 -3.245424 2.543959 -4.196265 4.371565 0.000000 0.000000 0.000000 0.000000 0.000000 0.000000 0.355869 -0.046043 16.773663 -0.000000 0.000000 0.000000 -0.000000 0.000000 0.000000 0.000000 0.000000 0.000000 0.355869 -0.046043 16.773663 -0.000000 0.000000 0.000000 -0.000000 0.000000 0.000000 0.000000 0.000000 0.000000
80.475326 81.398458 392.415855 -0.316782 0.147781 -16.772131 0.345950 -0.050080 16.772690 -0.000000 0.000000 0.000000 0.724928 -1.031522 0.461579 0.000000 0.000000 0.000000 -0.000000 0.000000 0.000000 -0.682392 0.717900 0.118602 2.781711 2.572692 0.015253 5.282487 -4.796754 -3.101937 0.000000 0.000000 0.000000 0.000000 0.000000 0.000000 -0.000000 0.000000 0.000000 1.225560 -2.608529 -0.340419 -1.636681 14.914985 -3.362331 3.874165 -5.195036 4.310228 0.000000 0.000000 0.000000 0.000000 0.000000 0.000000 0.345950 -0.050080 16.772690 -0.000000 0.000000 0.000000 -0.000000 0.000000 0.000000 0.000000 0.000000 0.000000 0.345950 -0.050080 16.772690 -0.000000 0.000000 0.000000 -0.000000 0.000000 0.000000 0.000000 0.000000 0.000000
80.482248 81.387723 392.386117 -0.302655 0.146941 -16.769816 0.332180 -0.053366 16.770359 -0.000000 0.000000 0.000000 0.649182 -0.957359 0.425743 0.000000 0.000000 0.000000 -0.000000 0.000000 0.000000 -0.600021 0.665245 0.101406 2.730546 2.973934 0.068785 5.147775 -6.259670 -2.849897 0.000000 0.000000 0.000000 0.000000 0.000000 0.000000 -0.819793 0.191889 0.094727 2.279233 -2.961285 -0.453102 -1.548770 14.665099 -3.268772 3.320736 -1.534844 4.424311 0.000000 0.000000 0.000000 0.000000 0.000000 0.000000 0.332180 -0.053366 16.770359 -0.000000 0.000000 0.000000 -0.000000 0.000000 0.000000 0.000000 0.000000 0.000000 0.332180 -0.053366 16.770359 -0.000000 0.000000 0.000000 -0.000000 0.000000 0.000000 0.000000 0.000000 0.000000
